<svg xmlns="http://www.w3.org/2000/svg" xmlns:xlink="http://www.w3.org/1999/xlink" width="1000" zoomAndPan="magnify" viewBox="0 0 750 749.999995" height="1000" preserveAspectRatio="xMidYMid meet" version="1.0"><defs><g/><clipPath id="033ea2e6f7"><path d="M 0 0 L 750 0 L 750 750 L 0 750 Z M 0 0 " clip-rule="nonzero"/></clipPath><clipPath id="176971bda7"><path d="M -13.257812 -36.027344 L 763.257812 -36.027344 C 770.710938 -36.027344 776.757812 -29.980469 776.757812 -22.527344 L 776.757812 753.988281 C 776.757812 761.441406 770.710938 767.488281 763.257812 767.488281 L -13.257812 767.488281 C -20.710938 767.488281 -26.757812 761.441406 -26.757812 753.988281 L -26.757812 -22.527344 C -26.757812 -29.980469 -20.710938 -36.027344 -13.257812 -36.027344 Z M -13.257812 -36.027344 " clip-rule="nonzero"/></clipPath><clipPath id="750d5ba606"><path d="M 0 0 L 750 0 L 750 750 L 0 750 Z M 0 0 " clip-rule="nonzero"/></clipPath><clipPath id="cf28accb40"><path d="M -13.257812 -36.027344 L 763.257812 -36.027344 C 770.710938 -36.027344 776.757812 -29.980469 776.757812 -22.527344 L 776.757812 753.988281 C 776.757812 761.441406 770.710938 767.488281 763.257812 767.488281 L -13.257812 767.488281 C -20.710938 767.488281 -26.757812 761.441406 -26.757812 753.988281 L -26.757812 -22.527344 C -26.757812 -29.980469 -20.710938 -36.027344 -13.257812 -36.027344 Z M -13.257812 -36.027344 " clip-rule="nonzero"/></clipPath><clipPath id="e8704cded5"><rect x="0" width="750" y="0" height="750"/></clipPath><clipPath id="db603f6232"><path d="M 66.007812 150 L 683.992188 150 L 683.992188 581.042969 L 66.007812 581.042969 Z M 66.007812 150 " clip-rule="nonzero"/></clipPath><clipPath id="a493c4d50b"><path d="M 41.644531 133.726562 L 263.5 133.726562 L 263.5 679.695312 L 41.644531 679.695312 Z M 41.644531 133.726562 " clip-rule="nonzero"/></clipPath><clipPath id="61bad72076"><path d="M 55.144531 133.726562 L 250 133.726562 C 257.453125 133.726562 263.5 139.769531 263.5 147.226562 L 263.5 666.0625 C 263.5 673.519531 257.453125 679.5625 250 679.5625 L 55.144531 679.5625 C 47.6875 679.5625 41.644531 673.519531 41.644531 666.0625 L 41.644531 147.226562 C 41.644531 139.769531 47.6875 133.726562 55.144531 133.726562 Z M 55.144531 133.726562 " clip-rule="nonzero"/></clipPath><clipPath id="173b86a67c"><path d="M 0.644531 0.726562 L 222.5 0.726562 L 222.5 546.679688 L 0.644531 546.679688 Z M 0.644531 0.726562 " clip-rule="nonzero"/></clipPath><clipPath id="3d3fcabd1b"><path d="M 14.144531 0.726562 L 209 0.726562 C 216.453125 0.726562 222.5 6.769531 222.5 14.226562 L 222.5 533.0625 C 222.5 540.519531 216.453125 546.5625 209 546.5625 L 14.144531 546.5625 C 6.6875 546.5625 0.644531 540.519531 0.644531 533.0625 L 0.644531 14.226562 C 0.644531 6.769531 6.6875 0.726562 14.144531 0.726562 Z M 14.144531 0.726562 " clip-rule="nonzero"/></clipPath><clipPath id="70abe44d40"><rect x="0" width="223" y="0" height="547"/></clipPath><clipPath id="669e128bec"><path d="M 169.886719 471.90625 L 396.664062 471.90625 L 396.664062 656.792969 L 169.886719 656.792969 Z M 169.886719 471.90625 " clip-rule="nonzero"/></clipPath><clipPath id="f3e30c0cca"><path d="M 184.886719 471.90625 L 381.574219 471.90625 C 389.859375 471.90625 396.574219 478.621094 396.574219 486.90625 L 396.574219 641.792969 C 396.574219 650.078125 389.859375 656.792969 381.574219 656.792969 L 184.886719 656.792969 C 176.601562 656.792969 169.886719 650.078125 169.886719 641.792969 L 169.886719 486.90625 C 169.886719 478.621094 176.601562 471.90625 184.886719 471.90625 Z M 184.886719 471.90625 " clip-rule="nonzero"/></clipPath><clipPath id="5cc4c089a0"><path d="M 0.886719 0.90625 L 227.664062 0.90625 L 227.664062 185.792969 L 0.886719 185.792969 Z M 0.886719 0.90625 " clip-rule="nonzero"/></clipPath><clipPath id="e5d37b2f29"><path d="M 15.886719 0.90625 L 212.574219 0.90625 C 220.859375 0.90625 227.574219 7.621094 227.574219 15.90625 L 227.574219 170.792969 C 227.574219 179.078125 220.859375 185.792969 212.574219 185.792969 L 15.886719 185.792969 C 7.601562 185.792969 0.886719 179.078125 0.886719 170.792969 L 0.886719 15.90625 C 0.886719 7.621094 7.601562 0.90625 15.886719 0.90625 Z M 15.886719 0.90625 " clip-rule="nonzero"/></clipPath><clipPath id="ea03a45deb"><rect x="0" width="228" y="0" height="186"/></clipPath><clipPath id="a0f16f8c1e"><rect x="0" width="337" y="0" height="750"/></clipPath><clipPath id="2fee193fcb"><rect x="0" width="750" y="0" height="750"/></clipPath></defs><rect x="-75" width="900" fill="#ffffff" y="-74.999999" height="899.999994" fill-opacity="1"/><rect x="-75" width="900" fill="#ffffff" y="-74.999999" height="899.999994" fill-opacity="1"/><g transform="matrix(1, 0, 0, 1, 0, -0.000000000000042435)"><g clip-path="url(#2fee193fcb)"><g clip-path="url(#033ea2e6f7)"><g clip-path="url(#176971bda7)"><g transform="matrix(1, 0, 0, 1, 0, -0.000000000000042435)"><g clip-path="url(#e8704cded5)"><g clip-path="url(#750d5ba606)"><g clip-path="url(#cf28accb40)"><rect x="-273" width="1296" fill="#00a859" y="-272.999998" height="1295.999991" fill-opacity="1"/></g></g></g></g></g></g><g clip-path="url(#db603f6232)"><path fill="#ffffff" d="M 251.546875 150.765625 C 250.992188 150.824219 249.253906 151.015625 247.675781 151.1875 C 237.300781 152.300781 230.410156 154.214844 216.273438 159.910156 C 175.109375 176.507812 136.488281 185.824219 105.507812 186.636719 L 98.988281 186.808594 L 98.988281 531.988281 L 99.632812 531.988281 C 100.769531 531.988281 110.402344 530.847656 116.765625 529.957031 C 151.269531 525.140625 187.835938 516.03125 216.273438 505.167969 C 229.050781 500.289062 236.144531 498.503906 246.386719 497.585938 C 278.164062 494.746094 323.664062 506.96875 365.429688 529.566406 C 367.894531 530.898438 369.992188 531.988281 370.089844 531.988281 C 370.1875 531.988281 370.269531 454.3125 370.269531 359.375 L 370.269531 186.761719 L 366.324219 184.355469 C 337.160156 166.554688 305.269531 154.890625 275.921875 151.285156 C 272.261719 150.835938 254.292969 150.449219 251.546875 150.765625 M 483.542969 150.761719 C 482.988281 150.824219 481.117188 151.007812 479.382812 151.171875 C 451.113281 153.855469 415.5 166.914062 385.117188 185.738281 L 383.765625 186.578125 L 383.753906 359.308594 C 383.75 454.308594 383.84375 531.996094 383.964844 531.941406 C 384.085938 531.890625 386.289062 530.703125 388.863281 529.304688 C 426.929688 508.632812 467.941406 496.808594 499.601562 497.378906 C 514.242188 497.640625 521.0625 499 536.164062 504.664062 C 564.054688 515.125 593.609375 522.925781 624.917969 528.085938 C 635.734375 529.871094 651.691406 531.988281 654.308594 531.988281 L 655.027344 531.988281 L 655.027344 186.808594 L 648.21875 186.628906 C 617.503906 185.828125 577.304688 176.132812 537.738281 159.992188 C 524.277344 154.5 518.441406 152.828125 507.34375 151.28125 C 504.222656 150.84375 486.300781 150.453125 483.542969 150.761719 M 84.074219 207.675781 C 82.890625 207.792969 78.34375 207.984375 73.964844 208.105469 L 66.007812 208.316406 L 66.007812 581.027344 L 67.238281 581.027344 C 69.0625 581.027344 82.933594 579.417969 90.957031 578.277344 C 129.855469 572.738281 166.738281 563.851562 200.070312 551.996094 C 217.484375 545.800781 225.984375 544.078125 241.671875 543.570312 C 276.015625 542.460938 323.523438 555.238281 367.714844 577.476562 C 371.597656 579.429688 374.851562 581.027344 374.953125 581.027344 C 375.050781 581.027344 379.167969 579.035156 384.101562 576.605469 C 434.957031 551.511719 485.210938 539.816406 521.679688 544.582031 C 531.203125 545.828125 536.546875 547.234375 550.066406 552.046875 C 582.824219 563.707031 619.984375 572.683594 658.039062 578.128906 C 667.644531 579.5 680.71875 581.027344 682.882812 581.027344 L 683.992188 581.027344 L 683.992188 208.230469 L 678.757812 208.222656 C 674.027344 208.214844 671.496094 208.089844 663.558594 207.488281 L 661.050781 207.296875 L 661.050781 543.460938 L 659.96875 543.460938 C 655.742188 543.460938 632.816406 540.296875 618.339844 537.71875 C 588.347656 532.375 562.46875 525.585938 535.734375 516.058594 C 527.367188 513.074219 523.253906 511.886719 517.460938 510.789062 C 482.285156 504.089844 432.347656 514.804688 382.328125 539.777344 L 375.027344 543.421875 L 366.984375 539.441406 C 319.21875 515.824219 271.753906 504.996094 237.636719 509.933594 C 229.289062 511.140625 224.847656 512.304688 214.554688 515.980469 C 177.0625 529.371094 125.898438 540.753906 91.582031 543.34375 L 88.949219 543.542969 L 88.949219 207.371094 L 87.589844 207.414062 C 86.839844 207.441406 85.257812 207.558594 84.074219 207.675781 " fill-opacity="1" fill-rule="evenodd"/></g><g clip-path="url(#a493c4d50b)"><g clip-path="url(#61bad72076)"><g transform="matrix(1, 0, 0, 1, 41, 133)"><g clip-path="url(#70abe44d40)"><g clip-path="url(#173b86a67c)"><g clip-path="url(#3d3fcabd1b)"><path fill="#00a859" d="M 0.644531 0.726562 L 222.5 0.726562 L 222.5 546.695312 L 0.644531 546.695312 Z M 0.644531 0.726562 " fill-opacity="1" fill-rule="nonzero"/></g></g></g></g></g></g><g clip-path="url(#669e128bec)"><g clip-path="url(#f3e30c0cca)"><g transform="matrix(1, 0, 0, 1, 169, 471)"><g clip-path="url(#ea03a45deb)"><g clip-path="url(#5cc4c089a0)"><g clip-path="url(#e5d37b2f29)"><path fill="#00a859" d="M 0.886719 0.90625 L 227.664062 0.90625 L 227.664062 185.792969 L 0.886719 185.792969 Z M 0.886719 0.90625 " fill-opacity="1" fill-rule="nonzero"/></g></g></g></g></g></g><g transform="matrix(1, 0, 0, 1, 49, -0.000000000000042435)"><g clip-path="url(#a0f16f8c1e)"><g fill="#ffffff" fill-opacity="1"><g transform="translate(0.369622, 644.54576)"><g><path d="M 30.65625 -45.203125 L 30.65625 -521.8125 C 30.65625 -532.539062 56.578125 -537.90625 108.421875 -537.90625 C 160.273438 -537.90625 186.203125 -532.539062 186.203125 -521.8125 L 186.203125 -146.359375 L 304.203125 -146.359375 C 313.398438 -146.359375 319.785156 -134.351562 323.359375 -110.34375 C 324.890625 -98.59375 325.65625 -86.585938 325.65625 -74.328125 C 325.65625 -62.066406 324.890625 -49.550781 323.359375 -36.78125 C 319.273438 -12.257812 312.632812 0 303.4375 0 L 67.4375 0 C 56.195312 0 47.253906 -4.59375 40.609375 -13.78125 C 33.972656 -22.976562 30.65625 -33.453125 30.65625 -45.203125 Z M 30.65625 -45.203125 "/></g></g></g></g></g></g></g></svg>